<?xml version="1.0" standalone="no"?>
<!DOCTYPE svg PUBLIC "-//W3C//DTD SVG 20010904//EN"
 "http://www.w3.org/TR/2001/REC-SVG-20010904/DTD/svg10.dtd">
<svg version="1.0" xmlns="http://www.w3.org/2000/svg"
 width="1452.000000pt" height="400.000000pt" viewBox="0 0 1452.000000 400.000000"
 preserveAspectRatio="xMidYMid meet">

<g transform="translate(0.000000,400.000000) scale(0.100000,-0.100000)"
fill="#000000" stroke="none">
<path d="M1747 3172 c-3 -4 -8 -50 -12 -102 -32 -434 -190 -787 -484 -1080
-121 -121 -231 -205 -363 -280 -38 -21 -58 -38 -58 -50 0 -11 18 -54 41 -97
196 -371 536 -627 952 -714 136 -29 369 -31 507 -5 186 36 372 113 530 219 98
66 262 226 333 325 51 70 156 255 157 274 0 4 -22 19 -49 32 -208 106 -457
331 -594 536 -166 251 -251 495 -277 795 -6 72 -13 136 -15 143 -3 9 -79 12
-334 12 -181 0 -332 -3 -334 -8z m551 -241 c61 -487 321 -927 722 -1223 41
-30 90 -64 108 -74 17 -10 32 -22 32 -28 0 -14 -104 -166 -149 -216 -39 -45
-39 -45 -67 -29 -150 90 -392 304 -516 458 -242 300 -399 661 -453 1043 -8 57
-15 118 -15 136 l0 32 163 0 163 0 12 -99z m-417 -317 c15 -60 46 -161 69
-224 23 -63 44 -123 47 -132 9 -31 -117 -247 -236 -403 -25 -33 -106 -122
-179 -198 -160 -165 -199 -234 -209 -361 -3 -42 -10 -79 -14 -82 -14 -8 -151
118 -219 203 -36 45 -81 107 -100 138 l-34 58 21 16 c11 9 63 45 114 81 160
111 346 310 462 493 65 102 138 257 178 381 22 67 42 127 45 134 11 34 30 -3
55 -104z m227 -575 c68 -123 205 -308 314 -425 71 -76 70 -79 -35 -123 -143
-59 -310 -76 -452 -46 -108 23 -245 83 -245 107 0 6 25 37 55 70 102 110 207
253 309 421 21 35 33 34 54 -4z m-479 -629 c170 -105 435 -148 640 -105 89 19
213 66 274 105 26 16 50 30 53 30 3 0 42 -29 87 -64 45 -34 101 -76 125 -91
23 -15 42 -34 42 -41 0 -17 -122 -100 -218 -148 -282 -142 -634 -166 -937 -65
-49 17 -100 37 -112 45 -55 35 -88 172 -64 259 10 39 46 105 56 105 2 0 27
-14 54 -30z"/>
<path d="M4359 2833 c-48 -126 -601 -1610 -602 -1618 -2 -13 313 -19 326 -6 5
5 37 85 71 177 l63 169 343 0 342 0 62 -165 c34 -91 65 -171 69 -177 6 -10 52
-13 174 -13 l165 0 -6 22 c-3 13 -142 386 -308 831 l-303 807 -193 0 -192 0
-11 -27z m316 -668 c59 -159 110 -295 112 -302 4 -10 -43 -13 -227 -13 -186 0
-231 3 -228 13 16 65 225 612 230 603 4 -6 55 -142 113 -301z"/>
<path d="M5540 2030 l0 -830 160 0 160 0 2 573 3 572 388 -573 389 -572 144 0
144 0 0 830 0 830 -160 0 -160 0 -2 -541 -3 -542 -360 541 -360 541 -172 1
-173 0 0 -830z"/>
<path d="M7225 2848 c-3 -7 -4 -380 -3 -828 l3 -815 260 -3 c423 -5 570 15
745 101 69 33 102 58 175 132 103 103 148 179 191 320 26 83 28 103 28 270 1
202 -10 262 -70 393 -66 145 -165 256 -296 330 -76 44 -218 89 -318 101 -126
16 -709 15 -715 -1z m698 -293 c221 -47 357 -222 373 -480 14 -232 -76 -429
-236 -514 -94 -50 -112 -54 -313 -60 l-187 -6 0 538 0 537 148 0 c89 0 174 -6
215 -15z"/>
<path d="M8820 2311 c0 -432 3 -565 14 -623 48 -250 200 -414 444 -480 110
-30 334 -30 445 0 249 68 404 243 446 503 7 39 11 278 11 607 l0 542 -170 0
-169 0 -3 -562 c-3 -558 -3 -563 -26 -619 -50 -125 -145 -190 -287 -197 -189
-10 -310 76 -349 249 -13 57 -16 154 -16 598 l0 531 -170 0 -170 0 0 -549z"/>
<path d="M10450 2031 l0 -831 168 2 167 3 3 308 2 307 113 0 113 0 193 -310
193 -310 190 0 c153 0 189 3 185 13 -3 7 -93 152 -201 321 -108 169 -196 312
-196 317 0 5 6 9 13 9 7 0 45 16 85 35 170 81 262 237 262 445 0 255 -129 420
-385 493 -64 19 -106 21 -487 25 l-418 4 0 -831z m833 506 c66 -33 100 -77
116 -149 15 -64 -1 -143 -38 -188 -63 -79 -146 -100 -403 -100 l-168 0 0 236
0 236 218 -4 c215 -3 217 -3 275 -31z"/>
<path d="M11970 2030 l0 -830 168 2 167 3 3 828 2 827 -170 0 -170 0 0 -830z"/>
<path d="M12600 2030 l0 -830 545 0 545 0 0 150 0 150 -380 0 -380 0 0 680 0
680 -165 0 -165 0 0 -830z"/>
</g>
</svg>
